<?xml version="1.0" encoding="UTF-8"?>
<!DOCTYPE svg PUBLIC "-//W3C//DTD SVG 1.1//EN" "http://www.w3.org/Graphics/SVG/1.1/DTD/svg11.dtd">
<!-- Creator: CorelDRAW X8 -->
<svg xmlns="http://www.w3.org/2000/svg" xml:space="preserve" width="29.6332mm" height="5.2492mm" version="1.1" style="shape-rendering:geometricPrecision; text-rendering:geometricPrecision; image-rendering:optimizeQuality; fill-rule:evenodd; clip-rule:evenodd"
viewBox="0 0 2963 525"
 xmlns:xlink="http://www.w3.org/1999/xlink">
 <defs>
  <style type="text/css">
   <![CDATA[
    .fil0 {fill:#0064AF}
   ]]>
  </style>
 </defs>
 <g id="Capa_x0020_1">
  <metadata id="CorelCorpID_0Corel-Layer"/>
  <path class="fil0" d="M1950 252l1 270 123 0 0 -520 -117 0c-6,8 -87,228 -95,253 -8,-8 -81,-159 -97,-189 -9,-20 -23,-44 -31,-64l-79 0 0 520 77 0 0 -254c14,23 93,243 102,254l16 0 100 -270zm-791 270l111 0 0 -520 -112 0 1 520zm-815 0l279 0 0 -61 -161 0 0 -459 -118 1 0 519zm424 -453l117 0 1 453 122 0 1 -453 111 -1 0 -66 -352 0 0 67zm664 1l173 0 0 -68 -285 1 0 519c90,0 198,2 285,0l0 -60 -173 -1c0,-73 -2,-171 1,-242l127 0 0 -56 -128 0 0 -63 0 -30zm-1305 -1l168 -1 0 -66 -286 1 0 519 285 0 0 -61 -167 0 0 -243 123 0 0 -61 -123 0 0 -88zm2121 8c31,-4 80,-5 102,11 51,38 43,126 2,160 -18,15 -76,11 -105,9l1 -150 0 -30zm0 259c90,-1 145,14 196,-42 101,-110 29,-287 -85,-292l-235 1 1 519 122 0 1 -186zm558 -25c-3,43 -11,85 -25,121 -54,140 -133,-31 -114,-221 4,-43 10,-86 25,-121 58,-139 130,40 114,221zm-287 -24c5,70 30,120 70,170 32,38 93,73 171,65 121,-12 203,-143 193,-285 -9,-129 -100,-249 -242,-234 -128,13 -201,155 -192,284z"/>
 </g>
</svg>
