<svg width="13" height="12" viewBox="0 0 13 12" fill="none" xmlns="http://www.w3.org/2000/svg">
<path d="M12.6989 4.65678C12.6989 4.47705 12.56 4.36267 12.2823 4.31366L8.48341 3.74995L6.79229 0.31871C6.69426 0.122639 6.57171 0.0246037 6.42466 0.0246037C6.27761 0.0246037 6.15506 0.122639 6.05703 0.31871L4.36592 3.74995L0.567041 4.31366C0.289274 4.36267 0.150391 4.47705 0.150391 4.65678C0.150391 4.77115 0.215748 4.8937 0.346462 5.02441L3.09145 7.69588L2.42972 11.4702C2.42972 11.5356 2.42972 11.5846 2.42972 11.6173C2.42972 11.7153 2.45422 11.8011 2.50324 11.8746C2.55226 11.9482 2.63396 11.9849 2.74833 11.9849C2.83003 11.9849 2.92806 11.9523 3.04244 11.8869L6.42466 10.1223L9.80689 11.8869C9.92126 11.9523 10.0193 11.9849 10.101 11.9849C10.3134 11.9849 10.4196 11.8624 10.4196 11.6173C10.4196 11.5519 10.4196 11.5029 10.4196 11.4702L9.75787 7.69588L12.5029 5.02441C12.6336 4.8937 12.6989 4.77115 12.6989 4.65678ZM8.72849 7.35276L9.26769 10.5144L6.42466 9.01936L3.58163 10.5144L4.12083 7.35276L1.81699 5.12245L5.00315 4.63227L6.42466 1.76473L7.84618 4.63227L11.0323 5.12245L8.72849 7.35276Z" fill="black"/>
</svg>
